<svg width="84" height="84" viewBox="0 0 110 108" fill="none" xmlns="http://www.w3.org/2000/svg">
<g id="Google">
<g id="Google_2">
<rect id="Rectangle" width="110" height="107.121" rx="53.5607" fill="#EA4335"/>
<path id="Vector" d="M24.0191 53.1128C23.4095 37.2973 37.4679 22.6819 53.5339 22.4923C61.7224 21.8041 69.6888 24.9375 75.8857 30.048C73.3437 32.8021 70.7573 35.5244 67.9946 38.0731C62.5392 34.8071 55.971 32.3181 49.5951 34.5286C39.3114 37.414 33.0836 49.3787 36.8892 59.2921C40.0408 69.6457 52.8207 75.3277 62.8366 70.9783C68.0229 69.1484 71.4423 64.4331 72.9427 59.3663C66.9988 59.2497 61.0536 59.3226 55.1097 59.1608C55.0949 55.676 55.0801 52.2045 55.0949 48.7197C65.0072 48.7051 74.9343 48.6759 84.8614 48.7635C85.471 57.3017 84.1926 66.4393 78.5596 73.2922C70.8461 83.0743 56.5954 85.9451 45.0023 82.1076C32.6988 78.1256 23.7513 65.9116 24.0191 53.1128Z" fill="white"/>
</g>
</g>
</svg>
