<svg width="54" height="53" viewBox="0 0 64 63" fill="none" xmlns="http://www.w3.org/2000/svg">
<path d="M54.637 9.48406C48.7406 3.57308 40.5897 0.364258 32.2653 0.364258C14.5762 0.364258 0.35543 14.3817 0.528854 31.4391C0.528854 36.8435 2.08966 42.0789 4.69102 46.8077L0.182007 62.8518L17.0041 58.6297C21.6865 61.1629 26.8892 62.3451 32.0919 62.3451C49.6077 62.3451 63.8284 48.3277 63.8284 31.2703C63.8284 22.9949 60.5334 15.2262 54.637 9.48406ZM32.2653 57.1097C27.5829 57.1097 22.9005 55.9275 18.9117 53.5631L17.8712 53.0565L7.81264 55.5897L10.414 45.9633L9.7203 44.95C2.08966 32.9591 5.73156 17.0839 18.218 9.65295C30.7045 2.222 46.8329 5.76859 54.4635 17.9283C62.0942 30.0881 58.4523 45.7944 45.9658 53.2253C41.9771 55.7586 37.1212 57.1097 32.2653 57.1097ZM47.5266 38.3634L45.6189 37.519C45.6189 37.519 42.8442 36.3368 41.1099 35.4924C40.9365 35.4924 40.7631 35.3235 40.5897 35.3235C40.0694 35.3235 39.7225 35.4924 39.3757 35.6613C39.3757 35.6613 39.2023 35.8302 36.7744 38.5323C36.6009 38.8701 36.2541 39.039 35.9072 39.039H35.7338C35.5604 39.039 35.2135 38.8701 35.0401 38.7012L34.173 38.3634C32.2653 37.519 30.5311 36.5057 29.1437 35.1546C28.7969 34.8168 28.2766 34.4791 27.9298 34.1413C26.7158 32.9591 25.5018 31.608 24.6347 30.0881L24.4613 29.7503C24.2879 29.5814 24.2879 29.4125 24.1144 29.0748C24.1144 28.737 24.1144 28.3992 24.2879 28.2303C24.2879 28.2303 24.9816 27.3859 25.5018 26.8792C25.8487 26.5415 26.0221 26.0348 26.3689 25.697C26.7158 25.1904 26.8892 24.5148 26.7158 24.0082C26.5424 23.1638 24.4613 18.6039 23.941 17.5906C23.5942 17.0839 23.2473 16.915 22.7271 16.7461H22.2068C21.8599 16.7461 21.3397 16.7461 20.8194 16.7461C20.4725 16.7461 20.1257 16.915 19.7789 16.915L19.6054 17.0839C19.2586 17.2528 18.9117 17.5906 18.5649 17.7594C18.218 18.0972 18.0446 18.435 17.6978 18.7728C16.4838 20.2927 15.7901 22.1505 15.7901 24.0082C15.7901 25.3593 16.137 26.7104 16.6572 27.8926L16.8307 28.3992C18.3915 31.608 20.4725 34.4791 23.2473 37.0124L23.941 37.6879C24.4613 38.1946 24.9816 38.5323 25.3284 39.039C28.9703 42.0789 33.1325 44.2744 37.8149 45.4566C38.3352 45.6255 39.0289 45.6255 39.5491 45.7944C40.0694 45.7944 40.7631 45.7944 41.2834 45.7944C42.1505 45.7944 43.191 45.4566 43.8847 45.1189C44.405 44.7811 44.7518 44.7811 45.0987 44.4433L45.4455 44.1055C45.7924 43.7678 46.1392 43.5989 46.4861 43.2611C46.8329 42.9233 47.1798 42.5856 47.3532 42.2478C47.7 41.5723 47.8735 40.7278 48.0469 39.8834C48.0469 39.5456 48.0469 39.039 48.0469 38.7012C48.0469 38.7012 47.8735 38.5323 47.5266 38.3634Z" fill="white"/>
</svg>
