<svg width="64" height="45" viewBox="0 0 64 45" fill="none" xmlns="http://www.w3.org/2000/svg">
<path d="M56.0734 6.25148C51.6697 2.75836 46.3853 1.0118 40.8073 0.720703L39.9266 1.59398C44.9174 2.75836 49.3211 5.08711 53.4312 8.28914C48.4404 5.6693 42.8624 3.92273 36.9908 3.34055C35.2294 3.04945 33.7615 3.04945 32 3.04945C30.2385 3.04945 28.7706 3.04945 27.0092 3.34055C21.1376 3.92273 15.5596 5.6693 10.5688 8.28914C14.6789 5.08711 19.0826 2.75836 24.0734 1.59398L23.1927 0.720703C17.6147 1.0118 12.3303 2.75836 7.92661 6.25148C2.93578 15.5665 0.293578 26.0459 0 36.8163C4.40367 41.4738 10.5688 44.3848 17.0275 44.3848C17.0275 44.3848 19.0826 42.056 20.5505 40.0183C16.7339 39.1451 13.211 37.1074 10.8624 33.9054C12.9174 35.0698 14.9725 36.2341 17.0275 37.1074C19.6697 38.2718 22.3119 38.854 24.9541 39.4362C27.3028 39.7273 29.6514 40.0183 32 40.0183C34.3486 40.0183 36.6972 39.7273 39.0459 39.4362C41.6881 38.854 44.3303 38.2718 46.9725 37.1074C49.0275 36.2341 51.0826 35.0698 53.1376 33.9054C50.789 37.1074 47.2661 39.1451 43.4495 40.0183C44.9174 42.056 46.9725 44.3848 46.9725 44.3848C53.4312 44.3848 59.5963 41.4738 64 36.8163C63.7064 26.0459 61.0642 15.5665 56.0734 6.25148ZM22.3119 31.5766C19.3761 31.5766 16.7339 28.9568 16.7339 25.7548C16.7339 22.5527 19.3761 19.9329 22.3119 19.9329C25.2477 19.9329 27.8899 22.5527 27.8899 25.7548C27.8899 28.9568 25.2477 31.5766 22.3119 31.5766ZM41.6881 31.5766C38.7523 31.5766 36.1101 28.9568 36.1101 25.7548C36.1101 22.5527 38.7523 19.9329 41.6881 19.9329C44.6239 19.9329 47.2661 22.5527 47.2661 25.7548C47.2661 28.9568 44.6239 31.5766 41.6881 31.5766Z" fill="white"/>
</svg>
